# xmcd CD database file
#
# Track frame offsets:
#	150
#	16981
#	34889
#	51710
#
# Disc length: 929 seconds
#
# Revision: 0
# Processed by: cddbd v1.5.1PL2 Copyright (c) Steve Scherf et al.
# Submitted via: CDex 1.51
#
DISCID=32039f04
DTITLE=Sister Q - Working Girl
DYEAR=2006
DGENRE=JPop
TTITLE0=Working Girl
TTITLE1="フリフリ"レディ
TTITLE2=Working Girl -Backing Track-
TTITLE3="フリフリ"レディ -Backing Track-
EXTD=YEAR: 2006.03.08
EXTT0=
EXTT1=
EXTT2=
EXTT3=
PLAYORDER=
